<svg width="1200" height="900" viewBox="0 0 1200 900" fill="none" xmlns="http://www.w3.org/2000/svg">
  <defs>
    <linearGradient id="surface" x1="120" y1="80" x2="1080" y2="820" gradientUnits="userSpaceOnUse">
      <stop stop-color="#0F172A" />
      <stop offset="1" stop-color="#1E293B" />
    </linearGradient>
    <linearGradient id="panel" x1="340" y1="250" x2="900" y2="680" gradientUnits="userSpaceOnUse">
      <stop stop-color="#111827" />
      <stop offset="1" stop-color="#0B1220" />
    </linearGradient>
    <linearGradient id="accent" x1="300" y1="280" x2="900" y2="650" gradientUnits="userSpaceOnUse">
      <stop stop-color="#34D399" />
      <stop offset="1" stop-color="#059669" />
    </linearGradient>
    <filter id="blur" x="-20%" y="-20%" width="140%" height="140%" color-interpolation-filters="sRGB">
      <feGaussianBlur stdDeviation="18" />
    </filter>
  </defs>

  <rect width="1200" height="900" rx="36" fill="url(#surface)" />
  <circle cx="952" cy="152" r="160" fill="#34D399" fill-opacity="0.18" filter="url(#blur)" />
  <circle cx="212" cy="750" r="180" fill="#10B981" fill-opacity="0.16" filter="url(#blur)" />

  <rect x="198" y="186" width="804" height="520" rx="26" fill="url(#panel)" stroke="#334155" stroke-width="2" />
  <rect x="238" y="228" width="328" height="144" rx="18" fill="#0B1220" stroke="#1F2937" />
  <rect x="592" y="228" width="370" height="44" rx="10" fill="#0B1220" stroke="#1F2937" />
  <rect x="592" y="286" width="310" height="24" rx="8" fill="#334155" />
  <rect x="592" y="324" width="242" height="24" rx="8" fill="#334155" />

  <rect x="238" y="404" width="724" height="262" rx="18" fill="#0B1220" stroke="#1F2937" />
  <path d="M290 590L380 514L470 566L574 470L674 534L760 484L874 548" stroke="url(#accent)" stroke-width="8" stroke-linecap="round" stroke-linejoin="round" />
  <circle cx="380" cy="514" r="8" fill="#A7F3D0" />
  <circle cx="574" cy="470" r="8" fill="#A7F3D0" />
  <circle cx="760" cy="484" r="8" fill="#A7F3D0" />

  <circle cx="256" cy="772" r="56" fill="#0B1220" stroke="#334155" />
  <circle cx="256" cy="752" r="18" fill="#34D399" />
  <path d="M228 796C236 774 248 766 256 766C264 766 276 774 284 796" stroke="#34D399" stroke-width="8" stroke-linecap="round" />

  <circle cx="944" cy="772" r="56" fill="#0B1220" stroke="#334155" />
  <circle cx="944" cy="752" r="18" fill="#34D399" />
  <path d="M916 796C924 774 936 766 944 766C952 766 964 774 972 796" stroke="#34D399" stroke-width="8" stroke-linecap="round" />
</svg>
