<svg width="1920" height="1080" viewBox="0 0 1920 1080" fill="none" xmlns="http://www.w3.org/2000/svg">
  <defs>
    <linearGradient id="bg" x1="240" y1="0" x2="1680" y2="1080" gradientUnits="userSpaceOnUse">
      <stop stop-color="#020617" />
      <stop offset="0.55" stop-color="#0F172A" />
      <stop offset="1" stop-color="#022C22" />
    </linearGradient>
    <radialGradient id="glowA" cx="0" cy="0" r="1" gradientUnits="userSpaceOnUse" gradientTransform="translate(1500 180) rotate(122) scale(620 420)">
      <stop stop-color="#34D399" stop-opacity="0.38" />
      <stop offset="1" stop-color="#34D399" stop-opacity="0" />
    </radialGradient>
    <radialGradient id="glowB" cx="0" cy="0" r="1" gradientUnits="userSpaceOnUse" gradientTransform="translate(420 920) rotate(-28) scale(900 540)">
      <stop stop-color="#10B981" stop-opacity="0.32" />
      <stop offset="1" stop-color="#10B981" stop-opacity="0" />
    </radialGradient>
    <pattern id="grid" width="52" height="52" patternUnits="userSpaceOnUse">
      <path d="M52 0H0V52" stroke="white" stroke-opacity="0.08" />
    </pattern>
    <filter id="soft" x="-20%" y="-20%" width="140%" height="140%" color-interpolation-filters="sRGB">
      <feGaussianBlur stdDeviation="2" />
    </filter>
  </defs>

  <rect width="1920" height="1080" fill="url(#bg)" />
  <rect width="1920" height="1080" fill="url(#grid)" opacity="0.35" />
  <rect width="1920" height="1080" fill="url(#glowA)" />
  <rect width="1920" height="1080" fill="url(#glowB)" />

  <g stroke="#86EFAC" stroke-opacity="0.45" stroke-width="1.3">
    <path d="M120 760C440 610 510 260 860 210C1085 180 1250 250 1510 180C1670 138 1780 120 1860 92" />
    <path d="M210 942C560 730 720 860 1020 740C1230 658 1400 498 1810 480" />
    <path d="M90 450C380 430 430 560 700 520C980 470 1120 300 1360 360C1500 394 1640 500 1880 520" />
  </g>

  <g fill="#A7F3D0" fill-opacity="0.95" filter="url(#soft)">
    <circle cx="180" cy="742" r="4" />
    <circle cx="342" cy="622" r="4" />
    <circle cx="612" cy="478" r="4" />
    <circle cx="858" cy="212" r="4" />
    <circle cx="1108" cy="228" r="4" />
    <circle cx="1368" cy="362" r="4" />
    <circle cx="1618" cy="484" r="4" />
    <circle cx="312" cy="890" r="4" />
    <circle cx="622" cy="850" r="4" />
    <circle cx="1014" cy="744" r="4" />
    <circle cx="1328" cy="560" r="4" />
    <circle cx="1740" cy="486" r="4" />
  </g>

  <g stroke="#D1FAE5" stroke-opacity="0.2" stroke-width="1">
    <path d="M0 886L420 672L760 782L1140 664L1560 820L1920 710" />
    <path d="M0 276L362 352L706 262L1060 368L1450 274L1920 360" />
  </g>
</svg>
